#!OML:ASF F:\VICON\USERDATA\INSTALL\rory3\rory3.ASF
:FULLY-SPECIFIED
:DEGREES
226
root -9.3229 18.2401 9.26196 182.723 -42.6887 172.28
lowerback 9.80142 -2.10588 -3.2645
upperback 0.361845 -3.10471 2.57541
thorax -4.80206 -1.46433 4.96344
lowerneck 3.94778 -13.2914 -14.0863
upperneck 32.611 -32.5112 14.2454
head 15.9552 -16.4582 2.83565
rclavicle 2.64384e-014 -4.45278e-014
rhumerus -40.8706 -15.5486 -75.3244
rradius 29.3495
rwrist 8.9392
rhand -16.0555 8.24245
rfingers 7.12502
rthumb 10.1466 -21.4929
lclavicle 2.64384e-014 -4.45278e-014
lhumerus -28.7303 9.34476 80.8718
lradius 36.0203
lwrist -1.10767
lhand -19.2392 27.9968
lfingers 7.12502
lthumb 7.07424 57.8586
rfemur -12.2496 -12.9738 28.1496
rtibia 28.0878
rfoot -3.50231 -6.36017
rtoes 8.94313
lfemur -0.354978 5.26362 -17.4538
ltibia 50.4332
lfoot 16.0865 -14.894
ltoes -13.5169
227
root -9.27222 18.2315 9.34279 182.823 -43.2804 172.164
lowerback 9.72798 -2.18382 -3.3201
upperback 0.33929 -3.21027 2.63084
thorax -4.76713 -1.51549 5.06341
lowerneck 3.96834 -13.1967 -14.1617
upperneck 32.7079 -32.3526 14.2352
head 15.9795 -16.3998 2.87954
rclavicle -2.78299e-015 5.56597e-014
rhumerus -40.9897 -15.7696 -74.9704
rradius 29.1915
rwrist 9.10627
rhand -15.8324 8.30438
rfingers 7.12502
rthumb 10.3618 -21.4203
lclavicle -2.78299e-015 5.56597e-014
lhumerus -28.7853 8.63938 81.3629
lradius 36.4569
lwrist -0.363796
lhand -19.9775 27.9285
lfingers 7.12502
lthumb 6.36151 57.813
rfemur -12.6104 -13.1271 28.0973
rtibia 28.1288
rfoot -3.54913 -6.53818
rtoes 7.92206
lfemur 0.681688 5.54466 -17.7207
ltibia 48.9433
lfoot 16.1295 -14.9329
ltoes -13.478
228
root -9.21971 18.2269 9.42584 182.996 -43.8742 171.992
lowerback 9.68793 -2.27227 -3.41447
upperback 0.276605 -3.3338 2.68291
thorax -4.78865 -1.5717 5.18749
lowerneck 4.02975 -13.0392 -14.0518
upperneck 32.8548 -32.1094 14.1653
head 15.9495 -16.302 2.90752
rclavicle -5.42682e-014 -7.95139e-015
rhumerus -41.187 -16.0246 -74.5801
rradius 29.1232
rwrist 9.44992
rhand -15.5609 8.06189
rfingers 7.12502
rthumb 10.6238 -21.6496
lclavicle -5.42682e-014 -7.95139e-015
lhumerus -28.8772 8.26938 81.6711
lradius 36.7698
lwrist -0.520237
lhand -18.9793 27.2376
lfingers 7.12502
lthumb 7.32511 57.0908
rfemur -13.0262 -13.2251 27.9713
rtibia 28.1461
rfoot -3.58521 -6.79287
rtoes 8.16645
lfemur 1.6564 5.85918 -18.0418
ltibia 47.3375
lfoot 16.3054 -15.1273
ltoes -13.7197
229
root -9.16251 18.2205 9.50874 183.333 -44.5373 171.714
lowerback 9.5412 -2.3524 -3.65856
upperback 0.221521 -3.45869 2.74649
thorax -4.7322 -1.62743 5.40157
lowerneck 4.04801 -12.9463 -14.0182
upperneck 32.8774 -31.9211 14.1927
head 15.9172 -16.2166 2.96304
rclavicle -3.67752e-015 -4.77083e-014
rhumerus -41.3036 -16.2348 -74.2152
rradius 28.999
rwrist 9.71809
rhand -15.4499 7.81661
rfingers 7.12502
rthumb 10.7308 -21.8893
lclavicle -3.67752e-015 -4.77083e-014
lhumerus -28.6557 8.05641 81.9912
lradius 36.7768
lwrist -1.08833
lhand -16.7671 25.7927
lfingers 7.12502
lthumb 9.46004 55.5604
rfemur -13.5583 -13.3468 27.7885
rtibia 28.1131
rfoot -3.41577 -6.99523
rtoes 9.5026
lfemur 2.48346 6.07217 -18.4873
ltibia 45.6189
lfoot 16.7019 -15.299
ltoes -14.0707
230
root -9.10705 18.2126 9.58882 183.653 -45.1284 171.42
lowerback 9.3604 -2.44154 -3.92881
upperback 0.20657 -3.59813 2.7989
thorax -4.61053 -1.69343 5.61588
lowerneck 3.95853 -12.8055 -13.9674
upperneck 33.0505 -31.6579 14.1124
head 15.9364 -16.0965 2.97766
rclavicle 6.24184e-014 -3.02153e-014
rhumerus -41.3103 -16.3853 -73.9282
rradius 28.8248
rwrist 9.72918
rhand -15.3861 7.83852
rfingers 7.12502
rthumb 10.7923 -21.8642
lclavicle 6.24184e-014 -3.02153e-014
lhumerus -28.2738 8.04799 82.2898
lradius 36.6561
lwrist -1.85195
lhand -15.314 24.7547
lfingers 7.12502
lthumb 10.8619 54.4538
rfemur -14.0487 -13.3945 27.601
rtibia 28.1086
rfoot -3.28123 -7.30691
rtoes 10.2697
lfemur 3.37382 6.21545 -18.9892
ltibia 43.7735
lfoot 17.1663 -15.4111
ltoes -14.4789
231
root -9.04917 18.2024 9.67147 183.707 -45.6585 171.429
lowerback 9.28822 -2.5495 -3.96338
upperback 0.174691 -3.74097 2.8658
thorax -4.57935 -1.76355 5.71955
lowerneck 3.84579 -12.6545 -13.7544
upperneck 33.3449 -31.3319 13.8187
head 15.9218 -15.9491 2.90447
rclavicle 4.82053e-014 -1.59028e-014
rhumerus -41.3422 -16.5621 -73.6888
rradius 28.7529
rwrist 9.70599
rhand -15.2773 7.8375
rfingers 7.12502
rthumb 10.8973 -21.8597
lclavicle 4.82053e-014 -1.59028e-014
lhumerus -28.1137 7.80997 82.5396
lradius 36.7872
lwrist -2.1754
lhand -15.0695 25.0787
lfingers 7.12502
lthumb 11.0977 54.7653
rfemur -14.4998 -13.3917 27.6416
rtibia 28.1533
rfoot -3.32512 -7.71554
rtoes 10.8566
lfemur 4.35008 6.39259 -19.222
ltibia 41.8226
lfoot 17.8556 -15.2764
ltoes -14.1529
232
root -8.9857 18.1857 9.75627 183.874 -46.2161 171.3
lowerback 9.17298 -2.67327 -4.16039
upperback 0.17209 -3.92098 2.92705
thorax -4.47776 -1.85185 5.90877
lowerneck 3.76615 -12.488 -13.4561
upperneck 33.6032 -30.937 13.4894
head 15.8433 -15.769 2.82896
rclavicle 1.65886e-013 -2.70347e-014
rhumerus -41.2203 -16.6344 -73.5213
rradius 28.6436
rwrist 9.57506
rhand -15.3874 7.75589
rfingers 7.12502
rthumb 10.7911 -21.9469
lclavicle 1.65886e-013 -2.70347e-014
lhumerus -28.0069 7.5219 82.8735
lradius 37.0387
lwrist -2.02365
lhand -15.7265 25.5813
lfingers 7.12502
lthumb 10.464 55.3009
rfemur -15.0031 -13.387 27.5941
rtibia 28.2503
rfoot -3.3435 -8.06433
rtoes 12.1581
lfemur 5.3093 6.51879 -19.5534
ltibia 39.731
lfoot 18.6778 -14.7348
ltoes -13.2882
233
root -8.92122 18.1699 9.84747 184.195 -46.7729 171.006
lowerback 9.01413 -2.76807 -4.45128
upperback 0.254613 -4.0718 2.98383
thorax -4.25862 -1.9312 6.13514
lowerneck 3.62388 -12.384 -13.1963
upperneck 33.686 -30.66 13.3945
head 15.7824 -15.6119 2.81301
rclavicle 1.23246e-014 4.77083e-015
rhumerus -40.8861 -16.9037 -73.2671
rradius 28.3441
rwrist 9.57327
rhand -15.552 7.83152
rfingers 7.12502
rthumb 10.6324 -21.8795
lclavicle 1.23246e-014 4.77083e-015
lhumerus -27.6335 7.27005 83.2798
lradius 37.2073
lwrist -1.98749
lhand -16.1385 25.6381
lfingers 7.12502
lthumb 10.0666 55.3773
rfemur -15.5931 -13.4225 27.4081
rtibia 28.3992
rfoot -3.21847 -8.2855
rtoes 12.8028
lfemur 6.24222 6.42262 -20.0908
ltibia 37.5108
lfoot 19.5365 -13.1815
ltoes -10.078
234
root -8.85788 18.1551 9.93894 184.486 -47.3635 170.76
lowerback 8.85743 -2.85406 -4.68948
upperback 0.345405 -4.20473 3.05532
thorax -4.03545 -2.00425 6.34408
lowerneck 3.34627 -12.3388 -13.0756
upperneck 33.776 -30.5425 13.4252
head 15.8469 -15.5109 2.80455
rclavicle 4.12478e-014 3.18055e-015
rhumerus -40.6544 -17.3107 -72.9512
rradius 28.2226
rwrist 9.5832
rhand -15.3807 7.64718
rfingers 7.12502
rthumb 10.7975 -22.0553
lclavicle 4.12478e-014 3.18055e-015
lhumerus -27.2645 6.89425 83.652
lradius 37.4167
lwrist -2.39972
lhand -16.3798 25.8165
lfingers 7.12502
lthumb 9.83373 55.5668
rfemur -16.2077 -13.6261 27.2312
rtibia 28.5957
rfoot -3.17775 -8.28476
rtoes 12.8154
lfemur 7.25321 6.19775 -20.5761
ltibia 35.1944
lfoot 19.94 -11.0955
ltoes -6.48373
